<svg xmlns="http://www.w3.org/2000/svg" viewBox="0 0 120 120" role="img" aria-label="RollinDD eye">
  <defs>
    <radialGradient id="iris" cx="58%" cy="50%" r="58%">
      <stop offset="0" stop-color="#f8f4e9"/>
      <stop offset=".22" stop-color="#7fd8ff"/>
      <stop offset=".45" stop-color="#172b46"/>
      <stop offset=".72" stop-color="#07090d"/>
      <stop offset="1" stop-color="#020305"/>
    </radialGradient>
    <linearGradient id="gold" x1="15" y1="18" x2="102" y2="101">
      <stop offset="0" stop-color="#ffe997"/>
      <stop offset=".33" stop-color="#e9b241"/>
      <stop offset=".66" stop-color="#fff4c7"/>
      <stop offset="1" stop-color="#c98d28"/>
    </linearGradient>
    <linearGradient id="silver" x1="102" y1="18" x2="18" y2="103">
      <stop offset="0" stop-color="#f8fbff"/>
      <stop offset=".45" stop-color="#77c7ef"/>
      <stop offset="1" stop-color="#f7fbff"/>
    </linearGradient>
    <clipPath id="round">
      <circle cx="60" cy="60" r="58"/>
    </clipPath>
    <filter id="glow" x="-25%" y="-25%" width="150%" height="150%">
      <feGaussianBlur stdDeviation="2.2" result="blur"/>
      <feMerge>
        <feMergeNode in="blur"/>
        <feMergeNode in="SourceGraphic"/>
      </feMerge>
    </filter>
  </defs>
  <g clip-path="url(#round)">
    <rect width="120" height="120" fill="#030407"/>
    <ellipse cx="60" cy="61" rx="55" ry="38" fill="#11151b"/>
    <ellipse cx="60" cy="61" rx="52" ry="34" fill="url(#iris)"/>
    <path d="M10 59c13-29 34-43 55-42 25 1 40 18 46 31-15-13-31-18-48-17-20 2-37 10-53 28Z" fill="#f8efe1" opacity=".48"/>
    <path d="M11 62c11 29 34 44 57 42 22-2 37-17 42-30-14 13-29 19-46 18-21-1-38-11-53-30Z" fill="#1a0d07" opacity=".5"/>
    <path d="M20 63c9-25 30-42 51-39 13 2 22 11 22 22 0 20-29 22-29 40 0 7 6 11 15 12-27 5-50-11-59-35Z" fill="url(#gold)" filter="url(#glow)"/>
    <path d="M100 56C91 81 70 98 49 95 36 93 27 84 27 73c0-20 29-22 29-40 0-7-6-11-15-12 27-5 50 11 59 35Z" fill="url(#silver)" filter="url(#glow)"/>
    <circle cx="67" cy="45" r="11" fill="#030407"/>
    <circle cx="52" cy="78" r="11" fill="#030407"/>
    <circle cx="67" cy="45" r="2.8" fill="#f8f4e9" opacity=".9"/>
    <circle cx="52" cy="78" r="2.8" fill="#f8f4e9" opacity=".88"/>
    <g fill="none" stroke-linecap="round" opacity=".48">
      <path d="M14 33c18-9 41-12 66-4" stroke="#dfeeff" stroke-width="1.5"/>
      <path d="M22 97c22 8 45 8 70-4" stroke="#eeb24a" stroke-width="1.5"/>
      <path d="M4 17c19 8 36 12 54 12" stroke="#f4f8ff" stroke-width="1"/>
      <path d="M68 20c15-1 29-5 45-14" stroke="#f4f8ff" stroke-width="1"/>
      <path d="M7 108c17-13 34-19 53-19" stroke="#e7a940" stroke-width="1"/>
      <path d="M70 91c14 0 29 5 43 16" stroke="#e7a940" stroke-width="1"/>
    </g>
  </g>
  <circle cx="60" cy="60" r="58" fill="none" stroke="#f5d37a" stroke-width="2"/>
  <circle cx="60" cy="60" r="55" fill="none" stroke="#f8fbff" stroke-opacity=".4"/>
</svg>
